<?xml version="1.0" encoding="UTF-8" standalone="no"?>
<!-- Generator: Adobe Illustrator 27.5.0, SVG Export Plug-In . SVG Version: 6.00 Build 0)  -->

<svg
   version="1.1"
   x="0px"
   y="0px"
   viewBox="0 0 161.68201 161.683"
   xml:space="preserve"
   id="svg40"
   width="161.68201"
   height="161.683"
   xmlns="http://www.w3.org/2000/svg"
   xmlns:svg="http://www.w3.org/2000/svg"><defs
   id="defs40" />

<g
   id="Objects"
   transform="translate(-169.196,-117.173)">
	<g
   id="g12">
		
		
	</g>
<g
   id="g11">
			<circle
   style="fill:#ffffff"
   cx="250.037"
   cy="198.01401"
   r="78.841003"
   id="circle3" />
			<path
   style="fill:#2dd4bf;stroke:#000000;stroke-width:4;stroke-miterlimit:10;stroke-opacity:1;fill-opacity:1"
   d="m 214.578,268.445 c 27.614,-49.407 10.23,-83.046 10.23,-83.046 -20.721,1.481 -36.793,15.768 -36.793,15.768 26.28,24.178 16.433,61.177 16.433,61.177 0,0 7.258,5.05 10.13,6.101 z"
   id="path3" />
			<path
   style="fill:#2dd4bf;stroke:#000000;stroke-width:4;stroke-miterlimit:10;stroke-opacity:1;fill-opacity:1"
   d="m 268.876,165.694 c -24.26,-7.091 -48.273,2.886 -48.273,2.886 19.973,66.227 -6.025,99.866 -6.025,99.866 0,0 15.486,8.41 38.613,8.41 -0.001,-10e-4 34.524,-81.46 15.685,-111.162 z"
   id="path4" />
			<path
   style="fill:#2dd4bf;stroke:#000000;stroke-width:4;stroke-miterlimit:10;stroke-opacity:1;fill-opacity:1"
   d="m 323.457,169.231 c -21.911,-27.983 -58.703,-24.829 -58.703,-24.829 19.973,97.763 -41.023,127.952 -41.023,127.952 0,0 36.818,13.963 68.567,-7.773 -10e-4,-0.001 53.399,-33.98 31.159,-95.35 z"
   id="path5" />
			<circle
   style="fill:none;stroke:#000000;stroke-width:4;stroke-miterlimit:10;stroke-opacity:1"
   cx="250.037"
   cy="198.01401"
   r="78.841003"
   id="circle5" />
			<g
   id="g7">
				<path
   style="fill:none;stroke:#000000;stroke-width:4;stroke-miterlimit:10;stroke-opacity:1"
   d="m 234.268,274.752 c 5.94,-3.96 11.561,-9.708 16.292,-15.56"
   id="path6" />
				<path
   style="fill:none;stroke:#000000;stroke-width:4;stroke-miterlimit:10;stroke-opacity:1"
   d="m 327.827,185.399 c -11.954,-17.931 -28.383,-26.105 -41.452,-30.139 -1.142,5.523 -5.452,9.093 -11.064,9.981 3.763,40.372 -6.853,67.446 -17.394,83.787 -2.059,3.192 -4.552,6.697 -7.355,10.165"
   id="path7" />
			</g>
			<path
   style="fill:none;stroke:#000000;stroke-width:4;stroke-miterlimit:10;stroke-opacity:1"
   d="m 295.122,262.699 c -2.185,0.079 -4.359,-0.212 -6.446,-0.902"
   id="path8" />
			<path
   style="fill:none;stroke:#000000;stroke-width:4;stroke-miterlimit:10;stroke-opacity:1"
   d="m 288.676,261.797 c -0.893,-0.295 -1.769,-0.664 -2.624,-1.108 -10.175,-5.289 -13.366,-19.307 -7.126,-31.31 6.239,-12.003 19.546,-17.445 29.721,-12.156 6.551,3.405 10.207,10.428 10.315,18.202"
   id="path9" />
			<path
   style="fill:none;stroke:#000000;stroke-width:4;stroke-miterlimit:10;stroke-opacity:1"
   d="m 268.525,172.911 c -4.304,-0.999 -13.46,-2.403 -18.253,-2.403 -3.717,0 -7.235,0.313 -10.449,0.769 0.014,0.225 0.034,0.448 0.034,0.676 0,5.074 -3.401,9.346 -8.044,10.682 8.944,42.02 0.884,68.168 -10.422,88.504"
   id="path10" />
			<path
   style="fill:none;stroke:#000000;stroke-width:4;stroke-miterlimit:10;stroke-opacity:1"
   d="m 226.127,192.188 c -8.678,1.095 -17.365,4.614 -21.742,6.908 0.529,0.908 0.837,1.959 0.837,3.085 0,2.028 -0.987,3.821 -2.502,4.941 11.49,17.313 12.678,37.321 8.093,58.82"
   id="path11" />
		</g></g>

</svg>
